Coordinates
version=1
nRows=20
nColumns=33
inDegrees=yes

Units are S.I. units (second, meters, Newtons, ...)
Angles are in degrees.

endheader
time	ground_thorax_rot_x	ground_thorax_rot_y	ground_thorax_rot_z	ground_thorax_tx	ground_thorax_ty	ground_thorax_tz	clav_prot_r	clav_elev_r	scapula_abduction_r	scapula_elevation_r	scapula_upward_rot_r	scapula_winging_r	shoulder_elv_r	plane_of_elev_r	axial_rot_r	elbow_flexion_r	pro_sup_r	wrist_flex_r	wrist_dev_r	clav_prot_l	clav_elev_l	scapula_abduction_l	scapula_elevation_l	scapula_upward_rot_l	scapula_winging_l	shoulder_elv_l	plane_of_elev_l	axial_rot_l	elbow_flexion_l	pro_sup_l	wrist_flex_l	wrist_dev_l	
9.6000	40.347805	2.951644	7.141544	-196.676609	887.652601	-2.782740	0.398204	42.226714	45.000000	45.000000	21.860002	1325.001516	-1373.471872	18.659589	-180.000000	1086.388425	-49.289228	22.319490	9.043574	12.989468	-45.000000	-39.960550	45.000000	-42.485831	-1341.929949	-1362.983402	18.821906	-53.147175	12.841891	47.216028	6.024890	-23.069069	
9.6100	40.335272	2.803558	6.610967	-194.106581	889.571163	-2.708573	0.065176	42.013282	45.000000	45.000000	23.582433	1324.914231	-1373.142676	18.709267	-180.000000	1086.397912	-49.389070	22.355303	9.197624	13.044144	-45.000000	-40.544969	45.000000	-41.336241	-1341.873774	-1362.834098	18.990154	-52.350688	12.803458	46.696338	6.086419	-23.115590	
9.6200	40.312021	2.629825	6.045928	-191.408567	891.346679	-2.626649	-0.319186	41.791733	45.000000	45.000000	25.382815	1324.805269	-1372.822042	18.759000	-180.000000	1086.413895	-49.631981	22.391972	9.366499	13.096682	-45.000000	-41.149249	45.000000	-39.989342	-1341.814385	-1362.687411	19.123802	-51.678378	12.741120	45.991223	6.189649	-23.169338	
9.6300	40.280844	2.432052	5.467219	-188.583834	892.957201	-2.533072	-0.739498	41.561971	45.000000	45.000000	27.257078	1324.684179	-1372.503068	18.807553	-180.000000	1086.431571	-50.029749	22.420197	9.556389	13.148718	-45.000000	-41.747350	45.000000	-38.507716	-1341.757455	-1362.549601	19.232246	-51.086530	12.655622	45.082388	6.332451	-23.226288	
9.6400	40.242774	2.214207	4.886246	-185.635018	894.382725	-2.425434	-1.239033	41.320533	45.000000	45.000000	29.201582	1324.552549	-1372.181710	18.853815	-180.000000	1086.450414	-50.562476	22.449345	9.757354	13.205777	-45.000000	-42.318320	45.000000	-36.967270	-1341.715500	-1362.422194	19.332398	-50.532205	12.541503	43.953410	6.524040	-23.285955	
9.6500	40.203586	2.005202	4.336754	-182.565910	895.605981	-2.303040	-1.716230	41.073406	45.000000	45.000000	31.116612	1324.425367	-1371.875583	18.903575	-180.000000	1086.454259	-51.220883	22.454865	9.974251	13.251244	-45.000000	-42.868679	45.000000	-35.439170	-1341.690515	-1362.316270	19.421733	-49.986847	12.406754	42.598400	6.753665	-23.340283	
9.6600	40.159370	1.795482	3.810103	-179.381375	896.612615	-2.166793	-2.211736	40.822398	45.000000	45.000000	32.989920	1324.286724	-1371.608321	18.971876	-180.000000	1086.447805	-51.997351	22.456610	10.192442	13.278884	-45.000000	-43.379777	45.000000	-33.919131	-1341.698628	-1362.217081	19.494393	-49.465240	12.246183	41.006539	7.039590	-23.395049	
9.6700	40.116350	1.597647	3.319824	-176.086996	897.391486	-2.018694	-2.632791	40.572269	45.000000	45.000000	34.788627	1324.158203	-1371.372944	19.045649	-180.000000	1086.422631	-52.899702	22.424294	10.426728	13.271743	-45.000000	-43.854121	45.000000	-32.438144	-1341.741404	-1362.137257	19.549735	-48.956869	12.065785	39.177933	7.369629	-23.440362	
9.6800	40.068079	1.404703	2.860256	-172.688951	897.934431	-1.861172	-3.023082	40.326587	45.000000	45.000000	36.515980	1324.030818	-1371.180038	19.127452	-180.000000	1086.390560	-53.936174	22.374151	10.669408	13.218522	-45.000000	-44.255153	45.000000	-31.003001	-1341.835096	-1362.056116	19.589362	-48.488285	11.865278	37.109589	7.750521	-23.473962	
9.6900	40.015666	1.238016	2.450363	-169.193462	898.236056	-1.696289	-3.306746	40.094295	45.000000	45.000000	38.104757	1323.927604	-1371.036354	19.201450	-180.000000	1086.348845	-55.136665	22.289613	10.928378	13.110129	-45.000000	-44.579459	45.000000	-29.675099	-1341.977199	-1361.976276	19.627778	-48.065761	11.653486	34.813950	8.161415	-23.482354	
9.7000	39.955826	1.075206	2.068035	-165.606400	898.293170	-1.525104	-3.594757	39.872712	45.000000	45.000000	39.635230	1323.828626	-1370.928616	19.269720	-180.000000	1086.321375	-56.524000	22.195098	11.198672	12.940031	-45.000000	-44.795112	45.000000	-28.422758	-1342.184759	-1361.884255	19.663160	-47.702971	11.425257	32.299465	8.609006	-23.464159	
9.7100	39.894442	0.938856	1.740166	-161.932934	898.104171	-1.347223	-3.830507	39.670092	45.000000	44.999999	41.034478	1323.755192	-1370.862069	19.324334	-180.000000	1086.300328	-58.113673	22.073395	11.484592	12.715749	-45.000000	-44.926814	45.000000	-27.279309	-1342.441404	-1361.804465	19.696899	-47.388154	11.188997	29.604000	9.075065	-23.410171	
9.7200	39.836168	0.827205	1.466755	-158.177686	897.668095	-1.160756	-4.013985	39.503397	45.000000	44.999998	42.277493	1323.705133	-1370.848106	19.371261	-180.000000	1086.283246	-59.912451	21.942560	11.774089	12.464217	-45.000000	-44.980932	45.000000	-26.256882	-1342.731966	-1361.750117	19.746098	-47.126204	10.946452	26.794031	9.551122	-23.319957	
9.7300	39.781090	0.757653	1.260047	-154.344711	896.983966	-0.962598	-4.160779	39.368038	45.000000	44.999997	43.293415	1323.685431	-1370.909108	19.409393	-180.000000	1086.263494	-61.907661	21.789567	12.067692	12.192142	-45.000000	-45.000000	45.000000	-25.335219	-1343.050102	-1361.726396	19.786202	-46.897958	10.710665	23.954945	10.027114	-23.196509	
9.7400	39.732013	0.729046	1.113976	-150.437866	896.050221	-0.749050	-4.315726	39.270767	45.000000	44.999995	44.062488	1323.683098	-1371.058270	19.451372	-180.000000	1086.234653	-64.074966	21.627949	12.351548	11.916192	-45.000000	-45.000000	45.000000	-24.492134	-1343.394790	-1361.738109	19.811720	-46.703101	10.480115	21.178734	10.502700	-23.045694	
9.7500	39.686701	0.743687	1.026946	-146.461219	894.864585	-0.516607	-4.516102	39.200858	45.000000	44.999991	44.570653	1323.689462	-1371.305603	19.503068	-180.000000	1086.197778	-66.391474	21.452592	12.624992	11.634060	-45.000000	-45.000000	45.000000	-23.688630	-1343.764949	-1361.790637	19.807148	-46.522900	10.256803	18.542949	10.974250	-22.873240	
9.7600	39.646888	0.793750	0.986500	-142.419641	893.424228	-0.262765	-4.709575	39.169343	45.000000	44.999984	44.856320	1323.705048	-1371.634835	19.551321	-180.000000	1086.151003	-68.844842	21.264595	12.884764	11.371568	-45.000000	-45.000000	45.000000	-22.944101	-1344.144988	-1361.891353	19.804350	-46.359529	10.041479	16.115781	11.427331	-22.682237	
9.7700	39.610544	0.870910	0.980044	-138.318940	891.726385	0.013374	-4.939380	39.156382	45.000000	44.999971	44.970689	1323.716016	-1372.032633	19.603492	-180.000000	1086.109236	-71.425517	21.056698	13.136710	11.106616	-45.000000	-45.000000	45.000000	-22.225229	-1344.542981	-1362.034959	19.788818	-46.199951	9.840653	13.924642	11.856752	-22.477654	
9.7800	39.581928	0.965626	0.993664	-134.165967	889.769161	0.310838	-5.149565	39.165991	45.000000	44.999949	45.000000	1323.723506	-1372.460966	19.642393	-180.000000	1086.079136	-74.118264	20.820200	13.382479	10.857700	-45.000000	-45.000000	45.000000	-21.563515	-1344.953925	-1362.224718	19.782343	-46.039105	9.656274	11.985305	12.253723	-22.263608	
9.7900	39.561143	1.069963	1.017512	-129.968321	887.552382	0.626853	-5.346230	39.186192	45.000000	44.999908	45.000000	1323.716455	-1372.902745	19.669464	-180.000000	1086.070186	-76.898319	20.551270	13.622344	10.619821	-45.000000	-45.000000	45.000000	-20.950339	-1345.376824	-1362.461287	19.785621	-45.858306	9.489963	10.293544	12.616270	-22.044854	
